<svg width="200" height="200" viewBox="0 0 200 200" fill="none" xmlns="http://www.w3.org/2000/svg">
  <!-- Pink Hearts -->
  <path d="M20 30l-1.45-1.32C13.4 24.36 10 21.28 10 17.5 10 14.42 12.42 12 15.5 12c1.74 0 3.41.81 4.5 2.09C21.09 12.81 22.76 12 24.5 12 27.58 12 30 14.42 30 17.5c0 3.78-3.4 6.86-8.55 11.54L20 30z" fill="#ff69b4" opacity="0.8"/>
  <path d="M120 80l-2.9-2.64C106.8 67.72 100 61.56 100 54 100 47.84 104.84 43 111 43c3.48 0 6.82 1.62 9 4.18C122.18 44.62 125.52 43 129 43c6.16 0 11 4.84 11 11 0 7.56-6.8 13.72-17.1 23.08L120 80z" fill="#ff69b4" opacity="0.6"/>
  <path d="M180 150l-1.45-1.32C173.4 144.36 170 141.28 170 137.5 170 134.42 172.42 132 175.5 132c1.74 0 3.41.81 4.5 2.09 1.09-1.28 2.76-2.09 4.5-2.09 3.08 0 5.5 2.42 5.5 5.5 0 3.78-3.4 6.86-8.55 11.54L180 150z" fill="#ff69b4" opacity="0.9"/>
  <path d="M50 160l-1.45-1.32C43.4 154.36 40 151.28 40 147.5 40 144.42 42.42 142 45.5 142c1.74 0 3.41.81 4.5 2.09 1.09-1.28 2.76-2.09 4.5-2.09 3.08 0 5.5 2.42 5.5 5.5 0 3.78-3.4 6.86-8.55 11.54L50 160z" fill="#ff69b4" opacity="0.7"/>

  <!-- White Hearts -->
  <path d="M70 40l-1.45-1.32C63.4 34.36 60 31.28 60 27.5 60 24.42 62.42 22 65.5 22c1.74 0 3.41.81 4.5 2.09C71.09 22.81 72.76 22 74.5 22 77.58 22 80 24.42 80 27.5c0 3.78-3.4 6.86-8.55 11.54L70 40z" fill="#ffffff" opacity="0.6"/>
  <path d="M150 110l-2.175-1.98C137.6 101.54 132.5 96.92 132.5 91.25 132.5 86.63 136.13 83 140.75 83c2.61 0 5.115 1.215 6.75 3.135 1.635-1.92 4.14-3.135 6.75-3.135 4.62 0 8.25 3.63 8.25 8.25 0 5.67-5.1 10.29-12.825 16.81L150 110z" fill="#ffffff" opacity="0.8"/>
  <path d="M90 180l-1.45-1.32C83.4 174.36 80 171.28 80 167.5 80 164.42 82.42 162 85.5 162c1.74 0 3.41.81 4.5 2.09 1.09-1.28 2.76-2.09 4.5-2.09 3.08 0 5.5 2.42 5.5 5.5 0 3.78-3.4 6.86-8.55 11.54L90 180z" fill="#ffffff" opacity="0.7"/>
 </svg>
